<svg xmlns="http://www.w3.org/2000/svg" width="227" height="197" fill="#FFC107" font-size="10" font-family="Dialog" color-interpolation="auto"><path d="M170.5 0H56.8L0 98.6l56.8 98.3h113.7l56.8-98.4L170.5 0zM65.3 14.6H162l48.4 83.7-48.4 84H65.4L17 98.2l48.3-83.7zM110 29.2v6.5c-9.4 1-16.4 3.4-21.2 7.5-7 6-10.6 14-10.6 23.8 0 5.5 1.2 10.4 3.6 14.8 2.5 4.3 6 7.7 10.4 10 6 3.5 12 5.6 17.7 6.7v43.8c-5.6-.5-10.4-3.2-14.3-8-2.8-3.6-4.7-9-5.8-16.4l-14.2 2.5c.5 7 2.4 13.2 5.6 18 3.2 5 7 8.6 11.4 10.8 4.4 2.3 10 3.8 17 4.7v13.7h8.4v-14c9.8-.3 17.8-3.8 24-10 6.2-6.5 9.3-14.5 9.3-24 0-4.3-.7-8.3-2.2-12-1.5-3.8-3.6-7-6.4-9.7-3-2.7-6.4-5-10.8-7-2.3-1-7-2.2-14-4V47.3c4.6 1 8.2 3 10.8 5.8 2.6 3 4.4 7 5.2 12.5l14.5-2.2c-1.3-8.7-5-15.6-11-20.5-5-4-11.3-6.3-19.5-7V29H110zm0 18v38c-6.5-1.8-11-4.3-13.7-7.5s-4-7-4-11.8c0-4.8 1.6-9 4.7-12.4 3-3.4 7.4-5.6 13-6.4zm8.2 53.2c7.5 2.4 12.6 5 15 8.2 2.6 3 4 7 4 12 0 6-2 10.8-5.5 14.8s-8 6.3-13.5 7v-42z"/></svg>