<?xml version="1.0" encoding="utf-8"?>
<!-- Generator: Adobe Illustrator 19.0.0, SVG Export Plug-In . SVG Version: 6.00 Build 0)  -->
<svg version="1.1" id="Ebene_1" xmlns="http://www.w3.org/2000/svg" xmlns:xlink="http://www.w3.org/1999/xlink" x="0px" y="0px"
	 width="18px" height="18px" viewBox="0 0 18 18" style="enable-background:new 0 0 18 18;" xml:space="preserve">
<style type="text/css">
	.st0{fill-rule:evenodd;clip-rule:evenodd;fill:#FFFFFF;}
</style>
<path id="XMLID_8_" class="st0" d="M9,0C4.03,0,0,4.03,0,9s4.03,9,9,9c4.97,0,9-4.03,9-9S13.97,0,9,0z M10.05,13.87h-2.1V7.76h2.1
	V13.87z M9.84,5.94C9.62,6.14,9.34,6.23,9,6.23c-0.34,0-0.62-0.1-0.84-0.29c-0.22-0.2-0.33-0.45-0.33-0.76s0.11-0.56,0.33-0.76
	C8.38,4.23,8.66,4.13,9,4.13c0.34,0,0.62,0.1,0.84,0.29c0.22,0.2,0.33,0.45,0.33,0.76S10.06,5.75,9.84,5.94z"/>
</svg>
