<?xml version="1.0" encoding="utf-8"?>
<svg fill="#032047" version="1.1" xmlns="http://www.w3.org/2000/svg" xmlns:xlink="http://www.w3.org/1999/xlink" x="0px" y="0px"
	 width="32px" height="28px" viewBox="0 0 32 28" style="enable-background:new 0 0 32 28;" xml:space="preserve">
<path d="M24,0.24H8L0,14l8,13.76h16L32,14L24,0.24z M17.46,22.02v2.58h-2.42v-2.48
	c-1.47-0.17-3.22-0.82-4.39-1.88l1.6-2.45c1.27,0.94,2.37,1.44,3.57,1.44c1.4,0,2.02-0.57,2.02-1.71c0-2.55-6.59-2.5-6.59-6.96
	c0-2.43,1.45-4.11,3.79-4.58V3.41h2.42v2.5c1.6,0.22,2.74,1.01,3.72,2.03l-1.85,2.08c-0.9-0.82-1.67-1.24-2.72-1.24
	c-1.2,0-1.85,0.47-1.85,1.59c0,2.35,6.58,2.15,6.58,6.89C21.35,19.64,20.03,21.47,17.46,22.02z"/>
</svg>
